<svg width="16" height="16" viewBox="0 0 16 16" fill="none" xmlns="http://www.w3.org/2000/svg">
<path fill-rule="evenodd" clip-rule="evenodd" d="M7.61539 1.65385C4.32229 1.65385 1.65385 4.32017 1.65385 7.60784C1.65385 10.8955 4.32229 13.5618 7.61539 13.5618C9.2583 13.5618 10.7449 12.8989 11.8238 11.825C12.9075 10.7463 13.5769 9.25563 13.5769 7.60784C13.5769 4.32017 10.9085 1.65385 7.61539 1.65385ZM0.5 7.60784C0.5 3.68166 3.6863 0.5 7.61539 0.5C11.5445 0.5 14.7308 3.68166 14.7308 7.60784C14.7308 9.36686 14.0905 10.9773 13.0312 12.218L15.3308 14.5149C15.5562 14.7401 15.5564 15.1054 15.3313 15.3308C15.1061 15.5562 14.7408 15.5564 14.5154 15.3313L12.2137 13.0322C10.9738 14.082 9.36818 14.7157 7.61539 14.7157C3.6863 14.7157 0.5 11.534 0.5 7.60784Z" fill="#3D3D3D"/>
</svg>
